<svg width="280" height="50" viewBox="0 0 280 50" fill="none" xmlns="http://www.w3.org/2000/svg">
<path d="M0 0V50H7.14286V0H0ZM50 0V50H57.1429V0H50ZM14.2857 7.14286V14.2857H28.5714V7.14286H14.2857ZM21.4286 21.4286V28.5714H35.7143V21.4286H21.4286ZM28.5714 35.7143V42.8571H42.8571V35.7143H28.5714Z" fill="white"/>
<path d="M66 42.1562V7H87.9844V13.3047H73.2188V21.2969H87.0234V27.625H73.2188V42.1562H66Z" fill="white"/>
<path d="M97.3281 18.7188V42.1562H92.5156V18.7188H97.3281Z" fill="white"/>
<path d="M111.266 42.1562H106.453V22.9219H99.5469V18.7188H118.188V22.9219H111.266V42.1562Z" fill="white"/>
<path d="M136.562 42.1562H129.344V13.3047H118.984V7H146.945V13.3047H136.562V42.1562Z" fill="white"/>
<path d="M168.281 42.1562H162.953L158.031 33.6875H154.156V42.1562H149.344V18.7188H158.25C160.135 18.7188 161.75 19.0156 163.094 19.6094C164.438 20.2031 165.464 21.0625 166.172 22.1875C166.891 23.3021 167.25 24.6406 167.25 26.2031C167.25 27.8073 166.87 29.1771 166.109 30.3125C165.359 31.4375 164.286 32.2812 162.891 32.8438L168.281 42.1562ZM154.156 29.8594H157.891C159.318 29.8594 160.411 29.5625 161.172 28.9688C161.943 28.3646 162.328 27.5052 162.328 26.3906C162.328 25.276 161.943 24.4219 161.172 23.8281C160.411 23.224 159.318 22.9219 157.891 22.9219H154.156V29.8594Z" fill="white"/>
<path d="M174.359 42.1562H169.312L178.656 18.7188H183.734L193.062 42.1562H188.016L186.094 37.125H176.281L174.359 42.1562ZM177.859 32.9062H184.531L181.188 24.2188L177.859 32.9062Z" fill="white"/>
<path d="M215.656 39.2188C214.562 40.2812 213.266 41.1146 211.766 41.7188C210.266 42.3229 208.635 42.625 206.875 42.625C205.094 42.625 203.453 42.3229 201.953 41.7188C200.453 41.1042 199.146 40.25 198.031 39.1562C196.927 38.0521 196.068 36.7604 195.453 35.2812C194.839 33.8021 194.531 32.1875 194.531 30.4375C194.531 28.6875 194.839 27.0729 195.453 25.5938C196.068 24.1042 196.927 22.8125 198.031 21.7188C199.146 20.625 200.453 19.776 201.953 19.1719C203.453 18.5573 205.094 18.25 206.875 18.25C208.625 18.25 210.245 18.5521 211.734 19.1562C213.234 19.7604 214.531 20.599 215.625 21.6719L212.266 25.0469C211.609 24.2448 210.807 23.6146 209.859 23.1562C208.922 22.6875 207.901 22.4531 206.797 22.4531C205.745 22.4531 204.771 22.6562 203.875 23.0625C202.99 23.4583 202.214 24.0208 201.547 24.75C200.88 25.4688 200.365 26.3125 200 27.2812C199.635 28.25 199.453 29.2969 199.453 30.4219C199.453 31.5677 199.635 32.625 200 33.5938C200.365 34.5625 200.88 35.4115 201.547 36.1406C202.214 36.8594 202.99 37.4219 203.875 37.8281C204.771 38.224 205.745 38.4219 206.797 38.4219C207.901 38.4219 208.922 38.1927 209.859 37.7344C210.797 37.2656 211.594 36.6302 212.25 35.8281L215.656 39.2188Z" fill="white"/>
<path d="M223.438 42.1562H218.625V18.7188H223.438V30.25C223.906 29.5625 224.354 28.9271 224.781 28.3438C225.208 27.7604 225.573 27.2812 225.875 26.9062L232.375 18.7188H238.047L229.453 29.5312L239.703 42.1562H233.469L226.375 33.3906L223.438 37.0938V42.1562Z" fill="white"/>
<path d="M241.719 42.1562V18.7188H256.844V22.9219H246.531V28.25H256.203V32.4688H246.531V37.9531H257V42.1562H241.719Z" fill="white"/>
<path d="M279.594 42.1562H274.266L269.344 33.6875H265.469V42.1562H260.656V18.7188H269.562C271.448 18.7188 273.062 19.0156 274.406 19.6094C275.75 20.2031 276.776 21.0625 277.484 22.1875C278.203 23.3021 278.562 24.6406 278.562 26.2031C278.562 27.8073 278.182 29.1771 277.422 30.3125C276.672 31.4375 275.599 32.2812 274.203 32.8438L279.594 42.1562ZM265.469 29.8594H269.203C270.63 29.8594 271.724 29.5625 272.484 28.9688C273.255 28.3646 273.641 27.5052 273.641 26.3906C273.641 25.276 273.255 24.4219 272.484 23.8281C271.724 23.224 270.63 22.9219 269.203 22.9219H265.469V29.8594Z" fill="white"/>
</svg>
